<svg xmlns="http://www.w3.org/2000/svg" viewBox="0 0 64 64">
  <rect width="64" height="64" rx="10" fill="#061528"/>
  <circle cx="12" cy="14" r="1.2" fill="#d8fff1" opacity="0.9"/>
  <circle cx="48" cy="10" r="0.9" fill="#b7d8ff" opacity="0.75"/>
  <circle cx="55" cy="42" r="1.1" fill="#ecfff7" opacity="0.85"/>
  <g fill="none" stroke-linejoin="round" stroke-linecap="round">
    <path d="M49 9 L37 18 L43 20 L45 26 Z" fill="#b9ffe8" stroke="#effff8" stroke-width="2"/>
    <path d="M44 22 L39 25" stroke="#69f0c8" stroke-width="1.6" opacity="0.65"/>
    <path d="M39 22 L33 25" stroke="#69f0c8" stroke-width="1.2" opacity="0.45"/>

    <path d="M38 25 L21 38 L30 41 L33 50 Z" fill="#8fffd8" stroke="#effff8" stroke-width="2.2"/>
    <path d="M31 43 L24 47" stroke="#69f0c8" stroke-width="2" opacity="0.65"/>
    <path d="M26 40 L18 43" stroke="#69f0c8" stroke-width="1.4" opacity="0.45"/>

    <path d="M24 39 L4 55 L16 57 L20 69 Z" fill="#56e9bd" stroke="#effff8" stroke-width="2.5"/>
    <path d="M17 58 L8 63" stroke="#69f0c8" stroke-width="2.2" opacity="0.62"/>
    <path d="M10 54 L1 58" stroke="#69f0c8" stroke-width="1.5" opacity="0.42"/>
  </g>
</svg>
